<svg width="91" height="26" viewBox="0 0 91 26" fill="none" xmlns="http://www.w3.org/2000/svg">
<g opacity="0.91">
<path d="M43.2494 0.247882V9.02996H45.5168V3.84216C45.5168 3.24016 45.6548 2.77981 45.9307 2.46111C46.2187 2.1306 46.6206 1.96535 47.1364 1.96535C47.5923 1.96535 47.9463 2.08929 48.1982 2.33717C48.4501 2.57324 48.5761 2.93326 48.5761 3.41722V9.02996H50.8435V3.84216C50.8435 3.24016 50.9815 2.77981 51.2574 2.46111C51.5454 2.1306 51.9473 1.96535 52.4631 1.96535C52.919 1.96535 53.2729 2.08929 53.5249 2.33717C53.7768 2.57324 53.9028 2.93326 53.9028 3.41722V9.02996H56.1702V3.25787C56.1702 2.54964 56.0323 1.96535 55.7563 1.50499C55.4924 1.03284 55.1325 0.684625 54.6766 0.460351C54.2327 0.224274 53.7348 0.106235 53.183 0.106235C52.4991 0.106235 51.9713 0.230176 51.5994 0.478057C51.2274 0.725939 50.9395 1.03874 50.7356 1.41647H50.4116C50.2077 1.02694 49.9138 0.714135 49.5299 0.478057C49.146 0.230176 48.6361 0.106235 48.0002 0.106235C47.4124 0.106235 46.9385 0.218372 46.5786 0.442646C46.2187 0.655116 45.9607 0.908899 45.8048 1.204H45.4809V0.247882H43.2494Z" fill="#0B0B0B"/>
<path fill-rule="evenodd" clip-rule="evenodd" d="M58.6085 8.95914C59.1124 9.17161 59.6822 9.27785 60.3181 9.27785C60.9419 9.27785 61.4338 9.18932 61.7937 9.01226C62.1536 8.8352 62.4176 8.63453 62.5855 8.41026C62.7535 8.17418 62.8615 7.98532 62.9094 7.84367H63.2514V7.86138C63.2514 8.2155 63.3953 8.49879 63.6833 8.71126C63.9712 8.92373 64.3371 9.02996 64.781 9.02996H66.2926V7.18856H65.5728C65.2369 7.18856 65.0689 7.0115 65.0689 6.65739V3.38181C65.0689 2.28405 64.727 1.44597 64.0432 0.867585C63.3593 0.289195 62.4296 0 61.2539 0C60.486 0 59.8322 0.118039 59.2923 0.354117C58.7645 0.57839 58.3386 0.879389 58.0146 1.25711C57.7027 1.62303 57.4748 2.03027 57.3308 2.47881L59.4183 3.16934C59.5023 2.76801 59.6822 2.4434 59.9582 2.19552C60.2341 1.93584 60.654 1.80599 61.2179 1.80599C61.7937 1.80599 62.2136 1.94174 62.4775 2.21323C62.7415 2.47291 62.8735 2.80932 62.8735 3.22246V3.71822H60.4261C59.7542 3.71822 59.1544 3.82446 58.6265 4.03693C58.1106 4.23759 57.7027 4.54449 57.4028 4.95763C57.1149 5.35896 56.9709 5.86062 56.9709 6.46262C56.9709 7.06462 57.1149 7.57809 57.4028 8.00303C57.7027 8.41616 58.1046 8.73487 58.6085 8.95914ZM62.2616 6.95838C61.8657 7.3007 61.3498 7.47185 60.714 7.47185C60.2341 7.47185 59.8682 7.37152 59.6163 7.17085C59.3643 6.97019 59.2383 6.7105 59.2383 6.3918C59.2383 6.07309 59.3583 5.82521 59.5983 5.64815C59.8382 5.4711 60.1681 5.38257 60.588 5.38257H62.8735V5.55962C62.8735 6.13801 62.6695 6.60427 62.2616 6.95838Z" fill="#0B0B0B"/>
<path d="M66.8707 0.247882V9.02996H69.1382V4.03693C69.1382 3.41132 69.3241 2.95097 69.696 2.65587C70.0679 2.34897 70.5418 2.19552 71.1177 2.19552H72.2334V0.21247H71.1537C70.7458 0.21247 70.3859 0.295097 70.0739 0.460351C69.774 0.625606 69.5581 0.885291 69.4261 1.23941H69.1022V0.247882H66.8707Z" fill="#0B0B0B"/>
<path d="M74.4452 8.74667C75.153 9.10079 75.9388 9.27785 76.8026 9.27785C77.6544 9.27785 78.3862 9.1303 78.9981 8.8352C79.6099 8.5401 80.1018 8.13877 80.4737 7.6312C80.8576 7.11183 81.1275 6.53935 81.2835 5.91374L79.088 5.40027C78.9921 5.96686 78.7641 6.42721 78.4042 6.78133C78.0563 7.12364 77.5404 7.29479 76.8566 7.29479C76.4007 7.29479 75.9868 7.20036 75.6149 7.0115C75.255 6.81084 74.9671 6.52164 74.7511 6.14392C74.5472 5.75439 74.4452 5.28223 74.4452 4.72745V4.55039C74.4452 3.99561 74.5472 3.52936 74.7511 3.15163C74.9671 2.76211 75.255 2.47291 75.6149 2.28405C75.9868 2.08338 76.4007 1.98305 76.8566 1.98305C77.3125 1.98305 77.6904 2.06568 77.9903 2.23093C78.3022 2.39619 78.5422 2.62046 78.7101 2.90375C78.8781 3.18705 78.9861 3.50575 79.0341 3.85987L81.2295 3.39952C81.1096 2.7503 80.8576 2.17191 80.4737 1.66435C80.1018 1.14498 79.6099 0.737743 78.9981 0.442646C78.3862 0.147549 77.6544 0 76.8026 0C75.9388 0 75.153 0.177058 74.4452 0.531175C73.7494 0.885291 73.1975 1.39876 72.7896 2.07158C72.3817 2.7444 72.1777 3.55887 72.1777 4.51498V4.76286C72.1777 5.71898 72.3817 6.53344 72.7896 7.20627C73.1975 7.87909 73.7494 8.39255 74.4452 8.74667Z" fill="#0B0B0B"/>
<path fill-rule="evenodd" clip-rule="evenodd" d="M83.9277 8.74667C84.6356 9.10079 85.4334 9.27785 86.3211 9.27785C87.2089 9.27785 88.0067 9.10079 88.7146 8.74667C89.4224 8.39255 89.9802 7.87909 90.3881 7.20627C90.7961 6.53344 91 5.72488 91 4.78057V4.49728C91 3.55297 90.7961 2.7444 90.3881 2.07158C89.9802 1.39876 89.4224 0.885291 88.7146 0.531175C88.0067 0.177058 87.2089 0 86.3211 0C85.4334 0 84.6356 0.177058 83.9277 0.531175C83.2199 0.885291 82.662 1.39876 82.2541 2.07158C81.8462 2.7444 81.6423 3.55297 81.6423 4.49728V4.78057C81.6423 5.72488 81.8462 6.53344 82.2541 7.20627C82.662 7.87909 83.2199 8.39255 83.9277 8.74667ZM88.0487 6.63968C87.5928 7.07642 87.017 7.29479 86.3211 7.29479C85.6253 7.29479 85.0495 7.07642 84.5936 6.63968C84.1377 6.19113 83.9097 5.55372 83.9097 4.72745V4.55039C83.9097 3.72412 84.1377 3.09262 84.5936 2.65587C85.0495 2.20732 85.6253 1.98305 86.3211 1.98305C87.029 1.98305 87.6048 2.20732 88.0487 2.65587C88.5046 3.09262 88.7326 3.72412 88.7326 4.55039V4.72745C88.7326 5.55372 88.5046 6.19113 88.0487 6.63968Z" fill="#0B0B0B"/>
<path d="M43.2494 16.97V25.7521H45.5168V20.7591C45.5168 20.1335 45.7028 19.6731 46.0747 19.378C46.4466 19.0711 46.9205 18.9177 47.4964 18.9177H48.6121V16.9346H47.5324C47.1245 16.9346 46.7645 17.0173 46.4526 17.1825C46.1527 17.3478 45.9367 17.6074 45.8048 17.9616H45.4809V16.97H43.2494Z" fill="#0B0B0B"/>
<path fill-rule="evenodd" clip-rule="evenodd" d="M50.8419 25.4688C51.5497 25.8229 52.3475 26 53.2353 26C54.1231 26 54.9209 25.8229 55.6287 25.4688C56.3365 25.1147 56.8944 24.6012 57.3023 23.9284C57.7102 23.2556 57.9141 22.447 57.9141 21.5027V21.2194C57.9141 20.2751 57.7102 19.4666 57.3023 18.7937C56.8944 18.1209 56.3365 17.6074 55.6287 17.2533C54.9209 16.8992 54.1231 16.7222 53.2353 16.7222C52.3475 16.7222 51.5497 16.8992 50.8419 17.2533C50.134 17.6074 49.5762 18.1209 49.1683 18.7937C48.7604 19.4666 48.5564 20.2751 48.5564 21.2194V21.5027C48.5564 22.447 48.7604 23.2556 49.1683 23.9284C49.5762 24.6012 50.134 25.1147 50.8419 25.4688ZM54.9628 23.3618C54.507 23.7986 53.9311 24.0169 53.2353 24.0169C52.5394 24.0169 51.9636 23.7986 51.5077 23.3618C51.0518 22.9133 50.8239 22.2759 50.8239 21.4496V21.2725C50.8239 20.4463 51.0518 19.8148 51.5077 19.378C51.9636 18.9295 52.5394 18.7052 53.2353 18.7052C53.9431 18.7052 54.519 18.9295 54.9628 19.378C55.4187 19.8148 55.6467 20.4463 55.6467 21.2725V21.4496C55.6467 22.2759 55.4187 22.9133 54.9628 23.3618Z" fill="#0B0B0B"/>
<path d="M60.7629 25.4688C61.4707 25.8229 62.2565 26 63.1203 26C63.9721 26 64.7039 25.8525 65.3158 25.5574C65.9276 25.2623 66.4195 24.8609 66.7914 24.3534C67.1753 23.834 67.4453 23.2615 67.6012 22.6359L65.4058 22.1224C65.3098 22.689 65.0818 23.1494 64.7219 23.5035C64.374 23.8458 63.8582 24.0169 63.1743 24.0169C62.7184 24.0169 62.3045 23.9225 61.9326 23.7337C61.5727 23.533 61.2848 23.2438 61.0688 22.8661C60.8649 22.4765 60.7629 22.0044 60.7629 21.4496V21.2725C60.7629 20.7178 60.8649 20.2515 61.0688 19.8738C61.2848 19.4843 61.5727 19.1951 61.9326 19.0062C62.3045 18.8055 62.7184 18.7052 63.1743 18.7052C63.6302 18.7052 64.0081 18.7878 64.308 18.9531C64.62 19.1183 64.8599 19.3426 65.0279 19.6259C65.1958 19.9092 65.3038 20.2279 65.3518 20.582L67.5472 20.1217C67.4273 19.4725 67.1753 18.8941 66.7914 18.3865C66.4195 17.8671 65.9276 17.4599 65.3158 17.1648C64.7039 16.8697 63.9721 16.7222 63.1203 16.7222C62.2565 16.7222 61.4707 16.8992 60.7629 17.2533C60.0671 17.6074 59.5152 18.1209 59.1073 18.7937C58.6994 19.4666 58.4955 20.281 58.4955 21.2371V21.485C58.4955 22.4411 58.6994 23.2556 59.1073 23.9284C59.5152 24.6012 60.0671 25.1147 60.7629 25.4688Z" fill="#0B0B0B"/>
<path d="M68.3919 13.358V25.7521H70.6594V21.2903C70.6594 20.4758 70.8513 19.8443 71.2352 19.3957C71.6191 18.9354 72.159 18.7052 72.8548 18.7052C73.4667 18.7052 73.9346 18.8705 74.2585 19.201C74.5944 19.5315 74.7624 20.0272 74.7624 20.6883V25.7521H77.0298V20.5112C77.0298 19.7794 76.8858 19.1419 76.5979 18.599C76.31 18.0442 75.9021 17.6133 75.3742 17.3064C74.8583 16.9877 74.2525 16.8284 73.5566 16.8284C73.0288 16.8284 72.5909 16.8933 72.243 17.0232C71.9071 17.1412 71.6371 17.2946 71.4332 17.4835C71.2292 17.6724 71.0793 17.8612 70.9833 18.0501H70.6594V13.358H68.3919Z" fill="#0B0B0B"/>
<path fill-rule="evenodd" clip-rule="evenodd" d="M79.463 25.6813C79.9669 25.8938 80.5367 26 81.1726 26C81.7964 26 82.2883 25.9115 82.6482 25.7344C83.0081 25.5574 83.2721 25.3567 83.44 25.1324C83.608 24.8963 83.716 24.7075 83.7639 24.5658H84.1059V24.5835C84.1059 24.9377 84.2498 25.2209 84.5378 25.4334C84.8257 25.6459 85.1916 25.7521 85.6355 25.7521H87.1471V23.9107H86.4273C86.0914 23.9107 85.9234 23.7337 85.9234 23.3795V20.104C85.9234 19.0062 85.5815 18.1681 84.8977 17.5897C84.2138 17.0113 83.2841 16.7222 82.1084 16.7222C81.3405 16.7222 80.6867 16.8402 80.1468 17.0763C79.619 17.3005 79.1931 17.6015 78.8691 17.9793C78.5572 18.3452 78.3293 18.7524 78.1853 19.201L80.2728 19.8915C80.3568 19.4902 80.5367 19.1656 80.8127 18.9177C81.0886 18.658 81.5085 18.5281 82.0724 18.5281C82.6482 18.5281 83.0681 18.6639 83.3321 18.9354C83.596 19.1951 83.728 19.5315 83.728 19.9446V20.4404H81.2806C80.6087 20.4404 80.0089 20.5466 79.481 20.7591C78.9651 20.9597 78.5572 21.2666 78.2573 21.6798C77.9694 22.0811 77.8254 22.5828 77.8254 23.1848C77.8254 23.7868 77.9694 24.3002 78.2573 24.7252C78.5572 25.1383 78.9591 25.457 79.463 25.6813ZM83.1161 23.6805C82.7202 24.0229 82.2043 24.194 81.5685 24.194C81.0886 24.194 80.7227 24.0937 80.4708 23.893C80.2188 23.6923 80.0928 23.4327 80.0928 23.114C80.0928 22.7952 80.2128 22.5474 80.4528 22.3703C80.6927 22.1932 81.0226 22.1047 81.4425 22.1047H83.728V22.2818C83.728 22.8602 83.524 23.3264 83.1161 23.6805Z" fill="#0B0B0B"/>
<path d="M0 4.43956C0 2.08544 1.90232 0.177051 4.24896 0.177051C6.45219 0.177051 8.26376 1.85933 8.47694 4.01331H8.5189C8.73208 1.85933 10.5436 0.177051 12.7469 0.177051C14.9501 0.177051 16.7617 1.85933 16.9749 4.01331H17.0168C17.23 1.85933 19.0416 0.177051 21.2448 0.177051C23.448 0.177051 25.2596 1.85933 25.4728 4.01331H25.4938V2.73456C25.4938 1.32209 26.6351 0.177051 28.0431 0.177051H33.9917V25.7521H0V4.43956Z" fill="#0B0B0B"/>
</g>
</svg>
